# xmcd
#
# Track frame offsets:
#	150
#	13152
#	31830
#	46835
#	59821
#	77699
#	91642
#	109163
#	124226
#	138057
#	155329
#	170502
#
# Disc length: 2570 seconds
#
# Revision: 0
# Processed by: cddbd v1.5.2PL0 Copyright (c) Steve Scherf et al.
# Submitted via: audiograbber 1.83.01
#
DISCID=910a080c
DTITLE=Crystal Sands - Crystal Sands
DYEAR=2008
DGENRE=Country
TTITLE0=Hank You
TTITLE1=Everytime I Think It's Over
TTITLE2=Melted Down Memories
TTITLE3=More Than Gas
TTITLE4=Wrapped Around His Finger
TTITLE5=Happy
TTITLE6=Not Any Closer
TTITLE7=Bottle Of Wine And Patsy Cline
TTITLE8=These Are Them
TTITLE9=Train Leaving Dallas
TTITLE10=Crazy That Way
TTITLE11=Under A Tennessee Moon
EXTD=
EXTT0=
EXTT1=
EXTT2=
EXTT3=
EXTT4=
EXTT5=
EXTT6=
EXTT7=
EXTT8=
EXTT9=
EXTT10=
EXTT11=
PLAYORDER=
